<?xml version="1.0" encoding="UTF-8" standalone="no"?>
<!DOCTYPE svg PUBLIC "-//W3C//DTD SVG 1.1//EN"
 "http://www.w3.org/Graphics/SVG/1.1/DTD/svg11.dtd">
<!-- Generated by graphviz version 2.40.1 (20161225.0304)
 -->
<!-- Title: Messages operations Pages: 1 -->
<svg width="351pt" height="28pt"
 viewBox="0.00 0.00 351.00 28.00" xmlns="http://www.w3.org/2000/svg" xmlns:xlink="http://www.w3.org/1999/xlink">
<g id="graph0" class="graph" transform="scale(1 1) rotate(0) translate(4 24)">
<title>Messages operations</title>
<polygon fill="#ffffff" stroke="transparent" points="-4,4 -4,-24 347,-24 347,4 -4,4"/>
<!-- Node0 -->
<g id="node1" class="node">
<title>Node0</title>
<polygon fill="#bfbfbf" stroke="#000000" points="123,-.5 123,-19.5 242,-19.5 242,-.5 123,-.5"/>
<text text-anchor="middle" x="182.5" y="-7.5" font-family="Helvetica,sans-Serif" font-size="10.00" fill="#000000">Messages operations</text>
</g>
<!-- Node2 -->
<g id="node3" class="node">
<title>Node2</title>
<g id="a_node3"><a xlink:href="group__REST__reactions.html" target="_top" xlink:title="Methods related to message reactions. ">
<polygon fill="#ffffff" stroke="#000000" points="278,-.5 278,-19.5 343,-19.5 343,-.5 278,-.5"/>
<text text-anchor="middle" x="310.5" y="-7.5" font-family="Helvetica,sans-Serif" font-size="10.00" fill="#000000">Reactions</text>
</a>
</g>
</g>
<!-- Node0&#45;&gt;Node2 -->
<g id="edge2" class="edge">
<title>Node0&#45;&gt;Node2</title>
<path fill="none" stroke="#000000" d="M252.0842,-10C260.9911,-10 269.7528,-10 277.6719,-10"/>
<polygon fill="#000000" stroke="#000000" points="252.0033,-6.5001 242.0033,-10 252.0033,-13.5001 252.0033,-6.5001"/>
</g>
<!-- Node1 -->
<g id="node2" class="node">
<title>Node1</title>
<g id="a_node2"><a xlink:href="group__REST.html" target="_top" xlink:title="Functions for performing requests to REST endpoints. ">
<polygon fill="#ffffff" stroke="#000000" points="0,-.5 0,-19.5 87,-19.5 87,-.5 0,-.5"/>
<text text-anchor="middle" x="43.5" y="-7.5" font-family="Helvetica,sans-Serif" font-size="10.00" fill="#000000">REST methods</text>
</a>
</g>
</g>
<!-- Node1&#45;&gt;Node0 -->
<g id="edge1" class="edge">
<title>Node1&#45;&gt;Node0</title>
<path fill="none" stroke="#000000" d="M97.1354,-10C105.5248,-10 114.24,-10 122.7558,-10"/>
<polygon fill="#000000" stroke="#000000" points="97.0991,-6.5001 87.0991,-10 97.0991,-13.5001 97.0991,-6.5001"/>
</g>
</g>
</svg>
