<?xml version="1.0" encoding="UTF-8" standalone="no"?>
<!DOCTYPE svg PUBLIC "-//W3C//DTD SVG 1.1//EN"
 "http://www.w3.org/Graphics/SVG/1.1/DTD/svg11.dtd">
<!-- Generated by graphviz version 2.40.1 (20161225.0304)
 -->
<!-- Title: Channel operations Pages: 1 -->
<svg width="435pt" height="28pt"
 viewBox="0.00 0.00 435.00 28.00" xmlns="http://www.w3.org/2000/svg" xmlns:xlink="http://www.w3.org/1999/xlink">
<g id="graph0" class="graph" transform="scale(1 1) rotate(0) translate(4 24)">
<title>Channel operations</title>
<polygon fill="#ffffff" stroke="transparent" points="-4,4 -4,-24 431,-24 431,4 -4,4"/>
<!-- Node2 -->
<g id="node1" class="node">
<title>Node2</title>
<g id="a_node1"><a xlink:href="group__REST__pins.html" target="_top" xlink:title="Methods related to pinned messages. ">
<polygon fill="#ffffff" stroke="#000000" points="270,-.5 270,-19.5 427,-19.5 427,-.5 270,-.5"/>
<text text-anchor="middle" x="348.5" y="-7.5" font-family="Helvetica,sans-Serif" font-size="10.00" fill="#000000">Pinned messages operations</text>
</a>
</g>
</g>
<!-- Node1 -->
<g id="node2" class="node">
<title>Node1</title>
<g id="a_node2"><a xlink:href="group__REST.html" target="_top" xlink:title="Functions for performing requests to REST endpoints. ">
<polygon fill="#ffffff" stroke="#000000" points="0,-.5 0,-19.5 87,-19.5 87,-.5 0,-.5"/>
<text text-anchor="middle" x="43.5" y="-7.5" font-family="Helvetica,sans-Serif" font-size="10.00" fill="#000000">REST methods</text>
</a>
</g>
</g>
<!-- Node0 -->
<g id="node3" class="node">
<title>Node0</title>
<polygon fill="#bfbfbf" stroke="#000000" points="123,-.5 123,-19.5 234,-19.5 234,-.5 123,-.5"/>
<text text-anchor="middle" x="178.5" y="-7.5" font-family="Helvetica,sans-Serif" font-size="10.00" fill="#000000">Channel operations</text>
</g>
<!-- Node1&#45;&gt;Node0 -->
<g id="edge1" class="edge">
<title>Node1&#45;&gt;Node0</title>
<path fill="none" stroke="#000000" d="M97.568,-10C105.7981,-10 114.3058,-10 122.5747,-10"/>
<polygon fill="#000000" stroke="#000000" points="97.3307,-6.5001 87.3306,-10 97.3306,-13.5001 97.3307,-6.5001"/>
</g>
<!-- Node0&#45;&gt;Node2 -->
<g id="edge2" class="edge">
<title>Node0&#45;&gt;Node2</title>
<path fill="none" stroke="#000000" d="M244.2517,-10C252.6484,-10 261.3096,-10 269.8837,-10"/>
<polygon fill="#000000" stroke="#000000" points="244.1644,-6.5001 234.1644,-10 244.1643,-13.5001 244.1644,-6.5001"/>
</g>
</g>
</svg>
