<?xml version="1.0" encoding="UTF-8" standalone="no"?>
<!DOCTYPE svg PUBLIC "-//W3C//DTD SVG 1.1//EN"
 "http://www.w3.org/Graphics/SVG/1.1/DTD/svg11.dtd">
<!-- Generated by graphviz version 2.40.1 (20161225.0304)
 -->
<!-- Title: REST methods Pages: 1 -->
<svg width="250pt" height="180pt"
 viewBox="0.00 0.00 250.00 180.00" xmlns="http://www.w3.org/2000/svg" xmlns:xlink="http://www.w3.org/1999/xlink">
<g id="graph0" class="graph" transform="scale(1 1) rotate(0) translate(4 176)">
<title>REST methods</title>
<polygon fill="#ffffff" stroke="transparent" points="-4,4 -4,-176 246,-176 246,4 -4,4"/>
<!-- Node4 -->
<g id="node1" class="node">
<title>Node4</title>
<g id="a_node1"><a xlink:href="group__REST__users.html" target="_top" xlink:title="Methods related to users. ">
<polygon fill="#ffffff" stroke="#000000" points="137.5,-152.5 137.5,-171.5 227.5,-171.5 227.5,-152.5 137.5,-152.5"/>
<text text-anchor="middle" x="182.5" y="-159.5" font-family="Helvetica,sans-Serif" font-size="10.00" fill="#000000">Users methods</text>
</a>
</g>
</g>
<!-- Node5 -->
<g id="node2" class="node">
<title>Node5</title>
<g id="a_node2"><a xlink:href="group__REST__invites.html" target="_top" xlink:title="Methods related to invites. ">
<polygon fill="#ffffff" stroke="#000000" points="130.5,-114.5 130.5,-133.5 234.5,-133.5 234.5,-114.5 130.5,-114.5"/>
<text text-anchor="middle" x="182.5" y="-121.5" font-family="Helvetica,sans-Serif" font-size="10.00" fill="#000000">Invites operations</text>
</a>
</g>
</g>
<!-- Node2 -->
<g id="node3" class="node">
<title>Node2</title>
<g id="a_node3"><a xlink:href="group__REST__messages.html" target="_top" xlink:title="Methods related to messages. ">
<polygon fill="#ffffff" stroke="#000000" points="123,-76.5 123,-95.5 242,-95.5 242,-76.5 123,-76.5"/>
<text text-anchor="middle" x="182.5" y="-83.5" font-family="Helvetica,sans-Serif" font-size="10.00" fill="#000000">Messages operations</text>
</a>
</g>
</g>
<!-- Node3 -->
<g id="node4" class="node">
<title>Node3</title>
<g id="a_node4"><a xlink:href="group__REST__guilds.html" target="_top" xlink:title="Methods related to guilds. ">
<polygon fill="#ffffff" stroke="#000000" points="138.5,-38.5 138.5,-57.5 226.5,-57.5 226.5,-38.5 138.5,-38.5"/>
<text text-anchor="middle" x="182.5" y="-45.5" font-family="Helvetica,sans-Serif" font-size="10.00" fill="#000000">Guild methods</text>
</a>
</g>
</g>
<!-- Node0 -->
<g id="node5" class="node">
<title>Node0</title>
<polygon fill="#bfbfbf" stroke="#000000" points="0,-76.5 0,-95.5 87,-95.5 87,-76.5 0,-76.5"/>
<text text-anchor="middle" x="43.5" y="-83.5" font-family="Helvetica,sans-Serif" font-size="10.00" fill="#000000">REST methods</text>
</g>
<!-- Node0&#45;&gt;Node4 -->
<g id="edge4" class="edge">
<title>Node0&#45;&gt;Node4</title>
<path fill="none" stroke="#000000" d="M62.1252,-101.9376C77.5855,-114.5086 100.5923,-131.7425 123,-143 130.2672,-146.651 138.3832,-149.7936 146.227,-152.4122"/>
<polygon fill="#000000" stroke="#000000" points="64.2958,-99.1908 54.3642,-95.501 59.8272,-104.5789 64.2958,-99.1908"/>
</g>
<!-- Node0&#45;&gt;Node5 -->
<g id="edge5" class="edge">
<title>Node0&#45;&gt;Node5</title>
<path fill="none" stroke="#000000" d="M88.2953,-98.2462C107.4547,-103.484 129.4938,-109.5091 147.4357,-114.4141"/>
<polygon fill="#000000" stroke="#000000" points="89.1446,-94.85 78.5756,-95.589 87.2986,-101.6022 89.1446,-94.85"/>
</g>
<!-- Node0&#45;&gt;Node2 -->
<g id="edge2" class="edge">
<title>Node0&#45;&gt;Node2</title>
<path fill="none" stroke="#000000" d="M97.1354,-86C105.5248,-86 114.24,-86 122.7558,-86"/>
<polygon fill="#000000" stroke="#000000" points="97.0991,-82.5001 87.0991,-86 97.0991,-89.5001 97.0991,-82.5001"/>
</g>
<!-- Node0&#45;&gt;Node3 -->
<g id="edge3" class="edge">
<title>Node0&#45;&gt;Node3</title>
<path fill="none" stroke="#000000" d="M88.2953,-73.7538C107.4547,-68.516 129.4938,-62.4909 147.4357,-57.5859"/>
<polygon fill="#000000" stroke="#000000" points="87.2986,-70.3978 78.5756,-76.411 89.1446,-77.15 87.2986,-70.3978"/>
</g>
<!-- Node1 -->
<g id="node6" class="node">
<title>Node1</title>
<g id="a_node6"><a xlink:href="group__REST__channels.html" target="_top" xlink:title="Methods related to channels. ">
<polygon fill="#ffffff" stroke="#000000" points="127,-.5 127,-19.5 238,-19.5 238,-.5 127,-.5"/>
<text text-anchor="middle" x="182.5" y="-7.5" font-family="Helvetica,sans-Serif" font-size="10.00" fill="#000000">Channel operations</text>
</a>
</g>
</g>
<!-- Node0&#45;&gt;Node1 -->
<g id="edge1" class="edge">
<title>Node0&#45;&gt;Node1</title>
<path fill="none" stroke="#000000" d="M62.1252,-70.0624C77.5855,-57.4914 100.5923,-40.2575 123,-29 130.2672,-25.349 138.3832,-22.2064 146.227,-19.5878"/>
<polygon fill="#000000" stroke="#000000" points="59.8272,-67.4211 54.3642,-76.499 64.2958,-72.8092 59.8272,-67.4211"/>
</g>
</g>
</svg>
